<svg xmlns="http://www.w3.org/2000/svg" viewBox="0 0 1000 1200" role="img" aria-label="Placeholder image">
  <defs>
    <linearGradient id="g" x1="0" y1="0" x2="1" y2="1">
      <stop offset="0" stop-color="#234e36"/>
      <stop offset="1" stop-color="#0b1a13"/>
    </linearGradient>
    <linearGradient id="c" x1="0" y1="0" x2="0" y2="1">
      <stop offset="0" stop-color="#cd7f47"/>
      <stop offset="1" stop-color="#a85327"/>
    </linearGradient>
    <pattern id="dots" width="36" height="36" patternUnits="userSpaceOnUse">
      <circle cx="2" cy="2" r="2" fill="#ffffff" opacity="0.05"/>
    </pattern>
  </defs>
  <rect width="1000" height="1200" fill="url(#g)"/>
  <rect width="1000" height="1200" fill="url(#dots)"/>
  <!-- abstract pipe + droplet motif -->
  <g opacity="0.9">
    <rect x="120" y="200" width="120" height="540" rx="60" fill="#163024"/>
    <rect x="120" y="620" width="520" height="120" rx="60" fill="#163024"/>
    <rect x="520" y="380" width="120" height="360" rx="60" fill="#163024"/>
    <circle cx="760" cy="320" r="120" fill="#163024"/>
  </g>
  <path d="M620 470c95 110 150 192 150 274a150 150 0 0 1-300 0c0-82 55-164 150-274Z" fill="url(#c)"/>
  <path d="M620 640c47 28 73 67 73 110a73 73 0 0 1-73 73Z" fill="#f4e2d2" opacity="0.85"/>
  <!-- placeholder chip -->
  <g transform="translate(500 1090)" text-anchor="middle" font-family="Inter, system-ui, sans-serif">
    <rect x="-185" y="-26" width="370" height="52" rx="26" fill="#0b1a13" opacity="0.55"/>
    <text x="0" y="5" fill="#dcebe0" font-size="22" font-weight="600">Placeholder — replace with real photo</text>
  </g>
</svg>
